<svg xmlns="http://www.w3.org/2000/svg" width="4041.05" height="2333.99" viewBox="0 0 4041.05 2333.99"><g id="Layer_2" data-name="Layer 2"><g id="Слой_1" data-name="Слой 1"><g id="DOOR"><path d="M2832.53,248.69h363.13a74.74,74.74,0,0,1,74.74,74.74v703.88a59.15,59.15,0,0,1-59.15,59.15H2816.93a59.15,59.15,0,0,1-59.15-59.15V323.43A74.74,74.74,0,0,1,2832.53,248.69Z" fill="#cee4ed"/><rect x="3361.08" y="248.69" width="512.62" height="837.77" rx="75.49" fill="#cee4ed"/><line x1="3010.96" y1="510.01" x2="3121.61" y2="361.05" fill="none" stroke="#fff" stroke-linecap="round" stroke-linejoin="round" stroke-width="7"/><line x1="2754.71" y1="854.97" x2="2940.54" y2="604.81" fill="none" stroke="#fff" stroke-linecap="round" stroke-linejoin="round" stroke-width="7"/><path d="M2713.32,2301.17V322.39a124,124,0,0,1,123.95-123.95h956.95a124,124,0,0,1,124,124V2301.17" fill="none" stroke="#592d29" stroke-linecap="round" stroke-linejoin="round" stroke-width="5"/><line x1="3315.74" y1="198.44" x2="3315.74" y2="2299" fill="none" stroke="#592d29" stroke-linecap="round" stroke-linejoin="round" stroke-width="5"/><line x1="3699.53" y1="495.2" x2="3810.86" y2="345.34" fill="none" stroke="#fff" stroke-linecap="round" stroke-linejoin="round" stroke-width="7"/><line x1="3595.84" y1="725.16" x2="3766.66" y2="495.2" fill="none" stroke="#fff" stroke-linecap="round" stroke-linejoin="round" stroke-width="7"/><line x1="3651.5" y1="559.86" x2="3673.89" y2="529.73" fill="none" stroke="#fff" stroke-linecap="round" stroke-linejoin="round" stroke-width="7"/><line x1="3425.82" y1="863.68" x2="3606.59" y2="620.33" fill="none" stroke="#fff" stroke-linecap="round" stroke-linejoin="round" stroke-width="7"/></g><g id="WINDOW"><rect x="64.79" y="248.69" width="1627.89" height="837.77" rx="103.77" fill="#cee4ed"/><line x1="1347.21" y1="546.72" x2="1480.62" y2="367.12" fill="none" stroke="#fff" stroke-linecap="round" stroke-linejoin="round" stroke-width="7"/><line x1="1172.35" y1="890.41" x2="1427.66" y2="546.72" fill="none" stroke="#fff" stroke-linecap="round" stroke-linejoin="round" stroke-width="7"/><line x1="1019.17" y1="988.32" x2="1295.65" y2="616.13" fill="none" stroke="#fff" stroke-linecap="round" stroke-linejoin="round" stroke-width="7"/><line x1="431.76" y1="937.53" x2="572.43" y2="748.16" fill="none" stroke="#fff" stroke-linecap="round" stroke-linejoin="round" stroke-width="7"/><line x1="323.07" y1="978.18" x2="645.01" y2="544.8" fill="none" stroke="#fff" stroke-linecap="round" stroke-linejoin="round" stroke-width="7"/></g><g id="SEAT"><path d="M2086.85,1152.81h53a184.63,184.63,0,0,1,184.63,184.63v151.39a39.34,39.34,0,0,1-39.34,39.34H1941.56a39.34,39.34,0,0,1-39.34-39.34V1337.44A184.63,184.63,0,0,1,2086.85,1152.81Z" fill="#bddce8"/><path d="M1483,1152.81h53a184.63,184.63,0,0,1,184.63,184.63v151.39a39.34,39.34,0,0,1-39.34,39.34H1337.75a39.34,39.34,0,0,1-39.34-39.34V1337.44A184.63,184.63,0,0,1,1483,1152.81Z" fill="#7ebad2"/><path d="M69.79,1683.65H2467.5A103.48,103.48,0,0,0,2364,1579.43H174A104.22,104.22,0,0,0,69.79,1683.65Z" fill="#bddce8"/><line x1="2467.61" y1="1683.89" x2="77.91" y2="1683.89" fill="none" stroke="#592d29" stroke-linecap="round" stroke-linejoin="round" stroke-width="5"/><path d="M879.23,1152.81h53a184.63,184.63,0,0,1,184.63,184.63v147.84a42.89,42.89,0,0,1-42.89,42.89H737.5a42.89,42.89,0,0,1-42.89-42.89V1337.44A184.63,184.63,0,0,1,879.23,1152.81Z" fill="#bddce8"/><path d="M275.42,1152.81h53A184.63,184.63,0,0,1,513.1,1337.44v147.84a42.89,42.89,0,0,1-42.89,42.89H133.68a42.89,42.89,0,0,1-42.89-42.89V1337.44a184.63,184.63,0,0,1,184.63-184.63Z" fill="#bddce8"/></g><g id="POSTERS"><rect x="1845.46" y="463.91" width="459.97" height="531.4" fill="#fed4c7"/><polyline points="1890.62 592.71 1940.9 659.35 2011.21 659.35 2117.61 790.92 2117.61 884.3 2040.34 941.83" fill="none" stroke="#f3b304" stroke-miterlimit="10" stroke-width="5"/><circle cx="2043.3" cy="939.76" r="9.5" fill="#fff" stroke="#f3b304" stroke-miterlimit="10" stroke-width="5"/><circle cx="2117.97" cy="882.32" r="9.5" fill="#fff" stroke="#f3b304" stroke-miterlimit="10" stroke-width="5"/><circle cx="2117.97" cy="794.73" r="9.5" fill="#fff" stroke="#f3b304" stroke-miterlimit="10" stroke-width="5"/><circle cx="2013.14" cy="661.18" r="9.5" fill="#fff" stroke="#f3b304" stroke-miterlimit="10" stroke-width="5"/><circle cx="1941.35" cy="661.18" r="9.5" fill="#fff" stroke="#f3b304" stroke-miterlimit="10" stroke-width="5"/><circle cx="1891.07" cy="587.94" r="9.5" fill="#fff" stroke="#f3b304" stroke-miterlimit="10" stroke-width="5"/><polyline points="2218.62 515.07 2159.16 564.96 2159.16 678.41 2079.76 749.5 1991.64 749.5 1930.84 798.54" fill="none" stroke="#59221d" stroke-linecap="round" stroke-linejoin="round" stroke-width="5"/><circle cx="1931.29" cy="798.54" r="9.5" fill="#fff" stroke="#59221d" stroke-linejoin="round" stroke-width="5"/><circle cx="1994.48" cy="749.72" r="9.5" fill="#fff" stroke="#59221d" stroke-linejoin="round" stroke-width="5"/><circle cx="2082.07" cy="749.72" r="9.5" fill="#fff" stroke="#59221d" stroke-linejoin="round" stroke-width="5"/><circle cx="2158.18" cy="676.48" r="9.5" fill="#fff" stroke="#59221d" stroke-linejoin="round" stroke-width="5"/><circle cx="2158.18" cy="567.34" r="9.5" fill="#fff" stroke="#59221d" stroke-linejoin="round" stroke-width="5"/><circle cx="2219.93" cy="511.34" r="9.5" fill="#fff" stroke="#59221d" stroke-linejoin="round" stroke-width="5"/><polyline points="2040.34 527.49 2040.34 606.61 2173.77 776.82 2230.04 776.82" fill="none" stroke="#fff" stroke-linecap="round" stroke-miterlimit="10" stroke-width="5"/><circle cx="2039.93" cy="519.03" r="9.5" fill="#f5bbbb" stroke="#fff" stroke-miterlimit="10" stroke-width="5"/><circle cx="2039.93" cy="606.63" r="9.5" fill="#f5bbbb" stroke="#fff" stroke-miterlimit="10" stroke-width="5"/><circle cx="2169.17" cy="774.64" r="9.5" fill="#f5bbbb" stroke="#fff" stroke-miterlimit="10" stroke-width="5"/><circle cx="2242.41" cy="774.64" r="9.5" fill="#f5bbbb" stroke="#fff" stroke-miterlimit="10" stroke-width="5"/><rect x="2112.76" y="320.6" width="192.67" height="90.54" transform="translate(4418.19 731.74) rotate(-180)" fill="#ffc200"/><line x1="2271.12" y1="349.7" x2="2148.58" y2="349.7" fill="none" stroke="#fff" stroke-linecap="round" stroke-miterlimit="10" stroke-width="5"/><line x1="2271.12" y1="371.26" x2="2149.05" y2="371.26" fill="none" stroke="#fff" stroke-linecap="round" stroke-miterlimit="10" stroke-width="5"/><line x1="2230.9" y1="388.5" x2="2191.22" y2="388.5" fill="none" stroke="#fff" stroke-linecap="round" stroke-miterlimit="10" stroke-width="5"/><rect x="1847.27" y="262.05" width="196.04" height="149.09" transform="translate(3890.57 673.19) rotate(-180)" fill="#7ebad2"/><rect x="1872.74" y="292.93" width="63.52" height="118.21" fill="#fed4c7"/><line x1="1910.82" y1="311.62" x2="2004.12" y2="311.62" fill="none" stroke="#fff" stroke-linecap="round" stroke-miterlimit="10" stroke-width="5"/><line x1="1910.82" y1="331.11" x2="2004.12" y2="331.11" fill="none" stroke="#fff" stroke-linecap="round" stroke-miterlimit="10" stroke-width="5"/><circle cx="1988.96" cy="369.1" r="19.4" fill="#ffc200"/></g><g id="_4_CHARACTER" data-name="4 CHARACTER"><g id="LEGS"><path id="RIGHT" d="M3061.27,2180.93s-114.1,115.16-244.09,112.22l-348.94-1063,335.58-13.21Z" fill="#59221d"/><g id="LEFT"><path d="M3004,1793.93,2618.4,2174.12c-11.87-14.52-98-124-97.16-268.31l262.19-271.21L2643.77,1487c-97.15-103.71-142.28-156.46-175.53-256.85L2827.65,1129l215.83,378.38A237.27,237.27,0,0,1,3004,1793.93Z" fill="#a74602"/><path d="M2707.08,1174.45c-1.76,13.15-25,168.49-144.21,222.65-11.29-13.59-21.47-26.66-30.75-39.68,122.8-65.41,167.5-190.52,167.5-190.52Q2703.25,1170.8,2707.08,1174.45Z" fill="#59221d"/><line x1="2779.09" y1="1634.6" x2="2822.23" y2="1592.45" fill="none" stroke="#59221d" stroke-linecap="round" stroke-linejoin="round" stroke-width="5"/></g></g><g id="SHOES"><g id="RIGHT-2" data-name="RIGHT"><path d="M3178.19,2328.91l0,2.58H2832.78l-17.69-53.43c156.81.91,243-98.85,243-98.85l93.51,88.43A87.28,87.28,0,0,1,3178.19,2328.91Z" fill="#fff" stroke="#592d29" stroke-linecap="round" stroke-linejoin="round" stroke-width="5"/><line x1="2826.56" y1="2312.71" x2="3176.07" y2="2312.71" fill="none" stroke="#592d29" stroke-linecap="round" stroke-linejoin="round" stroke-width="5"/><path d="M3103.23,2310.29a76.84,76.84,0,0,1,29.19-60.78" fill="none" stroke="#592d29" stroke-linecap="round" stroke-linejoin="round" stroke-width="5"/><path d="M3037.82,2229.82l38.88-37a9.05,9.05,0,0,1,12.64.15h0a9.05,9.05,0,0,1,.42,12.34" fill="none" stroke="#592d29" stroke-linecap="round" stroke-linejoin="round" stroke-width="5"/><path d="M3054.07,2243.9l38.87-37a9.05,9.05,0,0,1,12.64.15h0a9,9,0,0,1,.42,12.34" fill="none" stroke="#592d29" stroke-linecap="round" stroke-linejoin="round" stroke-width="5"/></g><g id="LEFT-2" data-name="LEFT"><path d="M2487.61,2331.36l-19.46.13-.48-374.22,53.6-49c-2.41,156.8,96.48,265.45,96.48,265.45l-103.83,146.48A37.31,37.31,0,0,1,2487.61,2331.36Z" fill="#fff" stroke="#592d29" stroke-linecap="round" stroke-linejoin="round" stroke-width="5"/><path d="M2488.48,2240.09a76.81,76.81,0,0,1,51.47,43.55" fill="none" stroke="#592d29" stroke-linecap="round" stroke-linejoin="round" stroke-width="5"/><line x1="2488.03" y1="1938.67" x2="2488.03" y2="2331.36" fill="none" stroke="#592d29" stroke-linecap="round" stroke-linejoin="round" stroke-width="5"/><path d="M2564.63,2171.84l35.07,40.66a9,9,0,0,1-.78,12.61h0a9.05,9.05,0,0,1-12.35-.19" fill="none" stroke="#592d29" stroke-linecap="round" stroke-linejoin="round" stroke-width="5"/><path d="M2549.77,2187.37l35.07,40.66a9,9,0,0,1-.78,12.61h0a9.05,9.05,0,0,1-12.35-.19" fill="none" stroke="#592d29" stroke-linecap="round" stroke-linejoin="round" stroke-width="5"/></g></g><path id="LINE" d="M2879,826.15v300.08a38.15,38.15,0,0,0,38.14,38.14h0a38.14,38.14,0,0,0,38.14-38.14V956.67" fill="none" stroke="#59221d" stroke-linecap="round" stroke-linejoin="round" stroke-width="5"/><g id="SHIRT"><path d="M3021.63,893.92l-29.77,77.93c-29.5,75.54-100.14,125.26-181.23,125.26l84.38,150s-126.2-5.74-195.39-80.24c0,0-60,167.9-231.87,216.39l.49-153.15V784.89c0-127.37,103.29-230.6,230.66-230.54h.51a158.37,158.37,0,0,1,158.11,149.27l4.12,71.55,1.47,25.73S2866.17,902.18,3021.63,893.92Z" fill="#98c8db"/><path d="M2493.05,680.77V1375c-1.43.54-2.87,1.07-4.34,1.58V689.76c.28-.59.55-1.18.82-1.77.68-1.45,1.36-2.9,2.08-4.33C2492.07,682.68,2492.55,681.73,2493.05,680.77Z" fill="#cee4ed"/><path d="M2519.42,640v723.81c-1.43.68-2.87,1.36-4.33,2V645.56C2516.51,643.7,2518,641.85,2519.42,640Z" fill="#cee4ed"/><path d="M2545.79,612.43v737.28q-2.14,1.29-4.33,2.54V616.37C2542.89,615,2544.33,613.72,2545.79,612.43Z" fill="#cee4ed"/><path d="M2572.17,592.21v740c-1.43,1-2.88,2.09-4.33,3.13V595.13Q2570,593.65,2572.17,592.21Z" fill="#cee4ed"/><path d="M2598.55,577.23v733.61c-1.43,1.28-2.87,2.56-4.34,3.82V579.38c1.27-.65,2.55-1.29,3.83-1.9A4.81,4.81,0,0,1,2598.55,577.23Z" fill="#cee4ed"/><path d="M2624.92,566.44v718.31q-2.11,2.34-4.33,4.65V568C2622,567.43,2623.47,566.93,2624.92,566.44Z" fill="#cee4ed"/><path d="M2651.29,559.25V1252.7c-1.41,1.91-2.86,3.83-4.33,5.76V560.2C2648.4,559.87,2649.84,559.55,2651.29,559.25Z" fill="#cee4ed"/><path d="M2677.67,555.3v657c-.56,1-1.15,2-1.74,3-.84,1.41-1.69,2.86-2.57,4.33l0,0V555.74C2674.78,555.58,2676.22,555.43,2677.67,555.3Z" fill="#cee4ed"/><path d="M2704.05,554.41v617.08c-1.47-1.46-2.92-3-4.33-4.48V554.35C2701.17,554.35,2702.61,554.37,2704.05,554.41Z" fill="#cee4ed"/><path d="M2730.42,557.39v636.16l-.66-.46c-1.23-.87-2.45-1.76-3.67-2.65V556.59C2727.54,556.84,2729,557.11,2730.42,557.39Z" fill="#cee4ed"/><path d="M2756.79,565.08v644.47c-1.45-.75-2.89-1.53-4.33-2.32V563.47C2753.92,564,2755.36,564.52,2756.79,565.08Z" fill="#cee4ed"/><path d="M2783.17,578.3v643.39c-1.44-.58-2.89-1.18-4.33-1.78V575.69c1,.58,2,1.18,3,1.79C2782.29,577.75,2782.74,578,2783.17,578.3Z" fill="#cee4ed"/><path d="M2809.55,598.94V1231c-1.44-.45-2.88-.9-4.33-1.38V594.88c1,.88,1.94,1.77,2.91,2.68C2808.6,598,2809.08,598.46,2809.55,598.94Z" fill="#cee4ed"/><path d="M2835.92,1142.08v96c-1.43-.33-2.87-.68-4.33-1V1134.39l.3.52,2.43,4.33Z" fill="#cee4ed"/><path d="M2835.92,632.4v463.07c-1.44.19-2.88.37-4.33.52V625.47q1.66,2.5,3.23,5.1C2835.2,631.17,2835.57,631.78,2835.92,632.4Z" fill="#cee4ed"/><path d="M2862.29,789.83v300.32c-1.43.4-2.88.78-4.33,1.14V789.83Z" fill="#cee4ed"/><path d="M2862.29,1189v54.35c-1.41-.22-2.86-.47-4.33-.73v-61.32l4.21,7.49Z" fill="#cee4ed"/><path d="M2888.67,855.64v225.1c-.82.37-1.65.73-2.48,1.07l-1.85.77V850.83C2885.69,852.44,2887.13,854.05,2888.67,855.64Z" fill="#cee4ed"/><path d="M2888.67,1235.86v10.82c-1.27-.11-2.72-.24-4.33-.42v-18.1Z" fill="#cee4ed"/><path d="M2915.05,875.51v191c-1.43.94-2.87,1.83-4.34,2.72V873l1.27.75C2913,874.37,2914,874.94,2915.05,875.51Z" fill="#cee4ed"/><path d="M2941.42,886.28v159.8c-1.41,1.32-2.87,2.61-4.33,3.88V884.91C2938.51,885.39,2940,885.84,2941.42,886.28Z" fill="#cee4ed"/><path d="M2967.8,892v124.27c-1.4,2-2.85,3.9-4.33,5.8V891.3C2964.89,891.53,2966.33,891.76,2967.8,892Z" fill="#cee4ed"/><path d="M2994.17,894.24v71.57l-2.31,6c-.5,1.27-1,2.54-1.53,3.79-.16.39-.32.78-.49,1.17V894C2991.27,894.13,2992.71,894.18,2994.17,894.24Z" fill="#cee4ed"/><path d="M3020.55,894v2.78l-1.38,3.58-3,7.76V894.17C3017.64,894.12,3019.08,894.05,3020.55,894Z" fill="#cee4ed"/><polygon points="2834.32 1139.24 2468.24 1139.24 2468.24 1134.91 2831.89 1134.91 2834.32 1139.24" fill="#cee4ed"/><polygon points="2819.39 1112.7 2468.24 1112.7 2468.24 1108.37 2816.95 1108.37 2819.39 1112.7" fill="#cee4ed"/><path d="M2886.19,1081.81l-1.85.77c-3.07,1.28-6.19,2.47-9.33,3.57H2468.24v-4.34Z" fill="#cee4ed"/><path d="M2930.7,1055.27q-2.77,2.24-5.65,4.34H2468.24v-4.34Z" fill="#cee4ed"/><path d="M2958.06,1028.72c-1.24,1.47-2.5,2.92-3.78,4.33h-486v-4.33Z" fill="#cee4ed"/><path d="M2977,1002.18c-.87,1.46-1.76,2.91-2.67,4.33H2468.24v-4.33Z" fill="#cee4ed"/><path d="M2990.33,975.64c-.16.39-.32.78-.49,1.17-.43,1.06-.89,2.11-1.37,3.16H2468.24v-4.33Z" fill="#cee4ed"/><polygon points="3000.56 949.09 2998.9 953.42 2468.24 953.42 2468.24 949.09 3000.56 949.09" fill="#cee4ed"/><polygon points="3010.69 922.55 3009.04 926.88 2468.24 926.88 2468.24 922.55 3010.69 922.55" fill="#cee4ed"/><polygon points="3020.83 896.01 3020.55 896.76 3019.17 900.34 2468.24 900.34 2468.24 896.01 3020.83 896.01" fill="#cee4ed"/><path d="M2912,873.79H2468.24v-4.33H2905.1c1.79,1.22,3.67,2.43,5.61,3.58Z" fill="#cee4ed"/><path d="M2881.48,847.25H2468.24v-4.33h410.13C2879.35,844.36,2880.37,845.8,2881.48,847.25Z" fill="#cee4ed"/><path d="M2867.33,820.71H2468.24v-4.33H2866C2866.35,817.77,2866.81,819.21,2867.33,820.71Z" fill="#cee4ed"/><polygon points="2862.72 794.16 2468.24 794.16 2468.24 789.83 2862.49 789.83 2862.72 794.16" fill="#cee4ed"/><path d="M2861.21,767.62H2468.88c.11-1.45.22-2.89.35-4.33H2861Z" fill="#cee4ed"/><path d="M2859.67,741.08H2472.4c.28-1.45.57-2.89.87-4.33h386.15Z" fill="#cee4ed"/><path d="M2858.14,714.53h-379c.46-1.45.94-2.9,1.44-4.33H2858v1.12Z" fill="#cee4ed"/><path d="M2855.85,688H2489.53c.68-1.45,1.36-2.9,2.08-4.33H2855.1C2855.37,685.1,2855.62,686.54,2855.85,688Z" fill="#cee4ed"/><path d="M2849.29,661.45H2504c.92-1.45,1.86-2.9,2.82-4.33h340.88C2848.27,658.56,2848.79,660,2849.29,661.45Z" fill="#cee4ed"/><path d="M2837.36,634.9H2523.71q1.86-2.19,3.8-4.33h307.31c.38.6.75,1.21,1.1,1.83C2836.41,633.22,2836.89,634.05,2837.36,634.9Z" fill="#cee4ed"/><path d="M2818.53,608.36h-268c1.74-1.47,3.52-2.92,5.31-4.33h258.77C2815.94,605.44,2817.25,606.89,2818.53,608.36Z" fill="#cee4ed"/><path d="M2788.54,581.81h-199c1.53-.83,3.08-1.64,4.63-2.43,1.27-.65,2.55-1.29,3.83-1.9h183.81c.44.27.89.54,1.32.82C2785,579.42,2786.77,580.59,2788.54,581.81Z" fill="#cee4ed"/><path d="M2548.61,1348l-2.82,1.69q-2.14,1.29-4.33,2.54v.1h-73.61V1348Z" fill="#cee4ed"/><path d="M2586.09,1321.48c-1.78,1.45-3.59,2.9-5.43,4.33H2467.94v-4.33Z" fill="#cee4ed"/><path d="M2615.25,1294.93c-1.43,1.45-2.87,2.9-4.34,4.33H2468v-4.33Z" fill="#cee4ed"/><path d="M2639.09,1268.39c-1.18,1.44-2.39,2.89-3.6,4.33H2468.1l0-4.33Z" fill="#cee4ed"/><path d="M2659,1241.85c-1,1.43-2,2.88-3,4.33H2468.18l0-4.33Z" fill="#cee4ed"/><path d="M2894.47,1246.18h-11c-5.48-.59-12.68-1.49-21.14-2.87-1.41-.22-2.86-.47-4.33-.73s-2.71-.47-4.1-.73H2892Z" fill="#cee4ed"/><path d="M2675.93,1215.3c-.84,1.41-1.69,2.86-2.57,4.33H2468.24v-4.33Z" fill="#cee4ed"/><path d="M2879.54,1219.63H2778.18q-4.89-2.07-9.77-4.33H2877.1Z" fill="#cee4ed"/><path d="M2690.1,1188.75c-.67,1.39-1.39,2.83-2.13,4.34H2468.24v-4.34Z" fill="#cee4ed"/><path d="M2864.61,1193.09H2729.76c-1.23-.87-2.45-1.76-3.67-2.65l-2.23-1.69h138.31l.12.21Z" fill="#cee4ed"/><polygon points="2849.68 1166.54 2468.24 1166.54 2468.24 1162.2 2847.24 1162.2 2849.68 1166.54" fill="#cee4ed"/><path d="M2617.57,569.07l34.9-41.52a16.19,16.19,0,0,1,13.51-5.74l93.92,6.43a16.23,16.23,0,0,1,13.14,8.44l30,55.3s-41.6-37.45-110.78-36.09C2647.62,556.76,2617.57,569.07,2617.57,569.07Z" fill="#7ebad2"/><path d="M2804.16,590.9s-44.11-36.37-115.67-35c-46.21.87-77.3,13.18-77.3,13.18" fill="none" stroke="#fff" stroke-linecap="round" stroke-linejoin="round" stroke-width="5"/><path d="M3019.11,896.47c-175,1.71-157.16-104.29-157.16-104.29l-90.44,92.73" fill="none" stroke="#fff" stroke-linecap="round" stroke-linejoin="round" stroke-width="5"/><path d="M2600.21,849.48s51.24,248.88,219.42,250.65" fill="none" stroke="#fff" stroke-linecap="round" stroke-linejoin="round" stroke-width="5"/></g><g id="HEAD"><g id="NECK"><path d="M2771,508.58l-6.18,20.77a16.3,16.3,0,0,0-4.87-1.11L2666,521.8c-.46,0-.91,0-1.36,0l42.5-79.3Z" fill="#ffc200"/><path d="M2771,508.58l-6.18,20.77a16.3,16.3,0,0,0-4.87-1.11L2741.56,527c-6.51-6.37-9.82-15.06-9.68-25l.17-12.93,2.77-17.9Z" fill="#a74602"/></g><path id="HAIR" d="M2741.51,436.41s37.74,6.4,60.38-12c26.05-21.12,17.84-55.53-4.93-57.83-25.25-2.55-29.52,21.62-27.64,24.09,0,0-7.76,4.74-27.37,1-14.9-2.83-26.73-5.73-41.74,6.57-15.67,12.84-12.81,47.55,12.47,56.72C2728.07,460.6,2741.51,436.41,2741.51,436.41Z" fill="#a74602"/><path id="HEAD-2" data-name="HEAD" d="M2743.11,436.61c44,4.64,60.78-14.14,60.78-14.14,11.62,13,10,53.61,10,53.61-21.22,9.72-22.35,37.83-22.35,37.83a164.79,164.79,0,0,1-24.64-.09,31.67,31.67,0,0,1-29.21-32l.1-7.24h-2.05a19.17,19.17,0,1,1,0-38.33Z" fill="#ffc200"/><g id="FACE"><path d="M2779,443.62s10.39-6.77,20.11-5.89" fill="none" stroke="#59221d" stroke-linecap="round" stroke-linejoin="round" stroke-width="5"/><ellipse cx="2790.58" cy="453.67" rx="3.42" ry="5.49" fill="#59221d"/><path d="M2784.08,484.85s.2,6.55,11.19,7.07" fill="none" stroke="#59221d" stroke-linecap="round" stroke-linejoin="round" stroke-width="5"/><path d="M2729.55,454.72a8.47,8.47,0,0,1,8.48-8.48" fill="none" stroke="#59221d" stroke-linecap="round" stroke-linejoin="round" stroke-width="5"/></g><g id="HEADPHONES"><rect x="2710.78" y="431.39" width="48.63" height="48.63" rx="20.51" stroke-width="5" stroke="#59221d" stroke-linecap="round" stroke-linejoin="round" fill="#fff"/><path d="M2736.55,430.44V389a6.27,6.27,0,0,1,6.27-6.27h0a6.27,6.27,0,0,1,6.27,6.27" fill="none" stroke="#59221d" stroke-linecap="round" stroke-linejoin="round" stroke-width="5"/><path d="M2734,480.57v31.36a67.25,67.25,0,0,0,40.38,61.65h0c63.52,27.7,104.58,92.57,104.58,161.87v58" fill="none" stroke="#59221d" stroke-linecap="round" stroke-linejoin="round" stroke-width="5"/></g></g><g id="HAND"><path d="M3024.63,889.92c-155.46,8.26-159.51-94-159.51-94l135.21-213.79a59.26,59.26,0,0,1,50.18-27.76h17.57l-2.93,5.42a13.16,13.16,0,0,0,11.58,19.41h12.58a13.16,13.16,0,0,0,11.64-7l31.78-60.37,10.65,32.94a48.92,48.92,0,0,1-.84,32.52Z" fill="#ffc200"/><path d="M3131.74,513.67,3101,572.15a13.13,13.13,0,0,1-11.64,7h-13A13.16,13.16,0,0,1,3064.66,560l24-46.23a16.61,16.61,0,0,1,14.73-9h23A6.07,6.07,0,0,1,3131.74,513.67Z" fill="#59221d"/><path d="M3063.55,787.83s14.06,106-46.61,106.48c-158.68,1.11-153.82-92.38-153.82-92.38,0-42.64,37.73-63.43,37.73-63.43s2.25,39.89,63.51,57.58S3063.55,787.83,3063.55,787.83Z" fill="#7ebad2"/></g></g><g id="HANDRAIL"><line x1="2467.75" y1="148" x2="64.79" y2="148" fill="none" stroke="#592d29" stroke-linecap="round" stroke-linejoin="round" stroke-width="5"/><line x1="2467.75" y1="2.5" x2="2467.75" y2="2330.52" fill="none" stroke="#592d29" stroke-linecap="round" stroke-linejoin="round" stroke-width="5"/><line x1="2216.73" y1="148" x2="2467.75" y2="376.1" fill="none" stroke="#592d29" stroke-linecap="round" stroke-linejoin="round" stroke-width="5"/><line x1="2201.69" y1="2331.49" x2="4038.55" y2="2331.49" fill="none" stroke="#592d29" stroke-linecap="round" stroke-linejoin="round" stroke-width="5"/></g><g id="_3_CHARACTER" data-name="3 CHARACTER"><path id="T-SHIRT" d="M2195.79,1534.21H2031c-69.56,0-119.55-66.92-99.81-133.63h0a190,190,0,0,1,182.23-136.11h0a190.06,190.06,0,0,1,182.23,136.11h0C2315.35,1467.29,2265.36,1534.21,2195.79,1534.21Z" fill="#ffc200"/><g id="LEGS-2" data-name="LEGS"><path id="SHORTS" d="M2292.42,1585.59c1.52,51.76-33.75,96-75.4,96H2008.4c-20.82,0-39.67-10.74-53.31-28.1s-22.09-41.35-22.09-67.85c0-21,5.32-40.49,14.34-56.3,13.4-29.55,47.13-50.53,86.31-47.79a106.44,106.44,0,0,1,34.81,8.14h87a106.44,106.44,0,0,1,34.81-8.14c32-2.24,60.37,11.35,77,32.51C2272.93,1520.64,2291.18,1543.65,2292.42,1585.59Z" fill="#59221d"/><g id="LEGS-3" data-name="LEGS"><path id="RIGHT-3" data-name="RIGHT" d="M2242.68,1785.38h-116.3l-4.11-213.66c-.83-43.51,36.16-78.9,79.45-74.68a73,73,0,0,1,65.82,72.52Z" fill="#a74602"/><path id="LEFT-3" data-name="LEFT" d="M1959.22,1569.56c0-41.54,33.69-75.43,75.89-72,37.78,3.06,66.56,35.25,66.56,73.14v214.69H1982.18Z" fill="#a74602"/></g><g id="SOCKS"><g id="RIGHT-4" data-name="RIGHT"><path d="M2242.37,1785.38l-10.52,84.3c-9.55,2.36-64.18,14.68-104-1.66l-1.51-82.64Z" fill="#7ebad2"/><circle cx="2142.4" cy="1856.2" r="7.09" fill="#cee4ed"/><circle cx="2176.17" cy="1839.47" r="7.09" fill="#cee4ed"/><circle cx="2152.17" cy="1828.68" r="7.09" fill="#cee4ed"/><circle cx="2176.17" cy="1803.82" r="7.09" fill="#cee4ed"/><circle cx="2140.04" cy="1799.57" r="7.09" fill="#cee4ed"/><circle cx="2196.29" cy="1854.02" r="7.09" fill="#cee4ed"/><circle cx="2201.69" cy="1820.9" r="7.09" fill="#cee4ed"/><circle cx="2223.89" cy="1801.01" r="7.09" fill="#cee4ed"/><circle cx="2223.89" cy="1838.85" r="7.09" fill="#cee4ed"/><path d="M2226.71,1868.6a6.79,6.79,0,0,1-.41,2.35c-3.15.67-7.25,1.48-12.06,2.26a7.09,7.09,0,1,1,12.47-4.61Z" fill="#cee4ed"/><circle cx="2168.08" cy="1868.71" r="7.09" fill="#cee4ed"/></g><g id="LEFT-4" data-name="LEFT"><path d="M2101.85,1867.54c-44.09,17.32-107.08,2.79-107.08,2.79l-12.59-84.95h119.48Z" fill="#7ebad2"/><circle cx="2002.32" cy="1856.2" r="7.47" fill="#cee4ed"/><circle cx="2035.67" cy="1839.47" r="7.47" fill="#cee4ed"/><circle cx="2012.62" cy="1825.12" r="7.47" fill="#cee4ed"/><circle cx="2037.91" cy="1803.43" r="7.47" fill="#cee4ed"/><circle cx="1997.31" cy="1799.57" r="7.47" fill="#cee4ed"/><circle cx="2057.34" cy="1857.29" r="7.47" fill="#cee4ed"/><circle cx="2064.81" cy="1820.9" r="7.47" fill="#cee4ed"/><circle cx="2086.51" cy="1799.57" r="7.47" fill="#cee4ed"/><circle cx="2088.21" cy="1835.84" r="7.47" fill="#cee4ed"/><circle cx="2083.71" cy="1865.21" r="7.47" fill="#cee4ed"/><path d="M2037.92,1871.53a7.43,7.43,0,0,1-1.28,4.18c-4.54-.22-8.87-.56-12.92-1a7.25,7.25,0,0,1-.74-3.22,7.47,7.47,0,0,1,14.94,0Z" fill="#cee4ed"/></g></g><g id="SHOES-2" data-name="SHOES"><g id="RIGHT-5" data-name="RIGHT"><path d="M2127.85,1868v57.86a30,30,0,0,0,10.91,23.16l47.84,39.47a27.13,27.13,0,0,0,15.42,4.81H2253c20.41,0,33.52-15.77,24.05-33.85l-46.73-89.16S2171.63,1886,2127.85,1868Z" fill="#fff" stroke="#592d29" stroke-linecap="round" stroke-linejoin="round" stroke-width="4"/><path d="M2279.08,1966c-4.52,8.17-12.32,14-22.94,14H2202a27.13,27.13,0,0,1-15.42-4.81l-45.22-37.31a37.22,37.22,0,0,1-13.53-28.71" fill="none" stroke="#592d29" stroke-linecap="round" stroke-linejoin="round" stroke-width="4"/><path d="M2211,1875.09l12,25a10.7,10.7,0,0,1-9.65,15.31h-9.79a23.32,23.32,0,0,1-20.55-12.29l-14.4-26.67" fill="none" stroke="#592d29" stroke-linecap="round" stroke-linejoin="round" stroke-width="4"/></g><g id="LEFT-5" data-name="LEFT"><path d="M2100.16,1868v58.4a30.3,30.3,0,0,1-11,23.37l-48.27,39.83a27.41,27.41,0,0,1-15.57,4.85h-51.41c-20.6,0-33.84-15.91-24.28-34.16l47.16-90S2056,1886.15,2100.16,1868Z" fill="#fff" stroke="#592d29" stroke-linecap="round" stroke-linejoin="round" stroke-width="4"/><path d="M1947.53,1966.91c4.57,8.25,12.44,14.16,23.15,14.16h54.63a27.36,27.36,0,0,0,15.56-4.85l45.63-37.65a37.58,37.58,0,0,0,13.66-29" fill="none" stroke="#592d29" stroke-linecap="round" stroke-linejoin="round" stroke-width="4"/><path d="M2016.25,1875.16l-12.07,25.19a10.79,10.79,0,0,0,9.74,15.45h9.89a23.54,23.54,0,0,0,20.73-12.39l14.53-26.93" fill="none" stroke="#592d29" stroke-linecap="round" stroke-linejoin="round" stroke-width="4"/></g></g></g><g id="HAND-2" data-name="HAND"><g id="BEAR"><path d="M2107,1422.71c-77.11,6.2-123.72-34.15-102.32-56,17.54-17.94,60,11,80.43,26.84C2088.6,1404.79,2096.32,1415.12,2107,1422.71Z" fill="#fff"/><ellipse cx="2116.32" cy="1324.8" rx="17.9" ry="17.03" transform="translate(304.2 3042.39) rotate(-75.51)" fill="#fff"/><path d="M2116.17,1335.55a14.93,14.93,0,0,1-3.78,6.7,5.41,5.41,0,0,1-.55-.12c-9.1-2.36-14.48-12-12-21.59a19.06,19.06,0,0,1,1.31-3.58,14.88,14.88,0,0,1,15,18.59Z" fill="#cee4ed"/><ellipse cx="2193.43" cy="1344.72" rx="17.9" ry="17.03" transform="translate(342.72 3131.98) rotate(-75.51)" fill="#fff"/><path d="M2210.27,1347.22c-.09.59-.21,1.17-.36,1.76-2.47,9.57-11.86,15.42-21,13.07a16.68,16.68,0,0,1-2.38-.82,16.71,16.71,0,0,1,.52-4.73c2.17-8.42,10.43-13.56,18.45-11.49A14.13,14.13,0,0,1,2210.27,1347.22Z" fill="#cee4ed"/><ellipse cx="2142.07" cy="1384.32" rx="50.32" ry="59.47" transform="translate(265.88 3111.94) rotate(-75.51)" fill="#fff"/><ellipse cx="2116.78" cy="1380.05" rx="3.81" ry="3.63" transform="matrix(0.25, -0.97, 0.97, 0.25, 251.04, 3084.26)" fill="#59221d"/><ellipse cx="2165.26" cy="1392.87" rx="3.81" ry="3.63" transform="translate(274.99 3140.81) rotate(-75.51)" fill="#59221d"/></g><g id="HAND-3" data-name="HAND"><path d="M2236.77,1501c29-3.3,47.12-32.28,40.42-56.19-8.51-30.33-35-37.38-63.93-34.17-33.56,3.73-113,9.9-187.12-1.26,0,0-18.07,53.38,28.45,77.1C2071.69,1495.15,2164.58,1509.2,2236.77,1501Z" fill="#a74602"/><path d="M2026.65,1411.63s-18.33,52.56,31.82,78.87" fill="none" stroke="#59221d" stroke-linecap="round" stroke-miterlimit="10" stroke-width="4"/><path d="M2026.62,1411.5s-.23,17.71,23.81,18.16" fill="none" stroke="#59221d" stroke-linecap="round" stroke-miterlimit="10" stroke-width="4"/><path d="M2024,1429.23s1.08,17.41,25.11,17.86" fill="none" stroke="#59221d" stroke-linecap="round" stroke-miterlimit="10" stroke-width="4"/><path d="M2024.09,1443.27s.71,19.72,24.7,19.89" fill="none" stroke="#59221d" stroke-linecap="round" stroke-miterlimit="10" stroke-width="4"/></g></g><g id="HEAD-3" data-name="HEAD"><g id="NECK-2" data-name="NECK"><path d="M2155.83,1269.26c-5.06,14.42-22.12,25-42.39,25s-37.36-10.62-42.4-25.06q8.3-1.87,16.83-3v-30.37h55.66v31Q2149.74,1267.86,2155.83,1269.26Z" fill="#a74602"/><path d="M2128.75,1259.82c8.75-5.69,14.78-13.57,14.78-24h-55.66v31S2113,1270.08,2128.75,1259.82Z" fill="#59221d"/></g><g id="CAP"><path d="M2154.07,1202.42h-16.15l-30.63-39h17.41a29.37,29.37,0,0,1,29.37,29.36Z" fill="#ffc200"/><path d="M2081.15,1196.49l54.13-.06-25.7-33.62c-8.17-11.4-20.33-18.16-34.36-18.16h-1c-15.34,0-24.58,17.59-15.32,29.83C2061.74,1178.23,2081.15,1196.49,2081.15,1196.49Z" fill="#fff" stroke="#ffc200" stroke-miterlimit="10" stroke-width="4"/></g><g id="HEAD-4" data-name="HEAD"><path id="HEAD-5" data-name="HEAD" d="M2166.88,1217.6v3a15.18,15.18,0,0,1-15.18,15.18h-14.23a34.74,34.74,0,0,1-32.63,22.81h-4.64a25.17,25.17,0,0,1-25.18-25.17v-24.74a26.29,26.29,0,0,1,31.55-25.75l5.59,1.14a34.32,34.32,0,0,1,23.82,18.31h15.72A15.18,15.18,0,0,1,2166.88,1217.6Z" fill="#a74602"/><path id="EAR" d="M2144.35,1221.06a10.68,10.68,0,0,1,10.68-10.68" fill="none" stroke="#59221d" stroke-linecap="round" stroke-miterlimit="10" stroke-width="4"/><path id="HAIR-2" data-name="HAIR" d="M2146.28,1202.42a20.56,20.56,0,0,0-14.7,6.2,4,4,0,0,1-2.89,1.24,4.08,4.08,0,0,1-4.11-4.09v-.11a15.85,15.85,0,0,0-4.55-11.14c-55.91,13.88-58.48-18-45-23.84,11.56-5,40.63,12.27,51.29,19Z" fill="#59221d"/><g id="FACE-2" data-name="FACE"><path d="M2076,1206.78s7.68-2,12.79,3.6c3.79,4.14,3.31,19.33,3.31,19.33" fill="none" stroke="#59221d" stroke-linecap="round" stroke-miterlimit="10" stroke-width="4"/><path d="M2102.34,1207.41s10.79-2.06,16.42,2.46" fill="none" stroke="#59221d" stroke-linecap="round" stroke-miterlimit="10" stroke-width="4"/><ellipse cx="2080.85" cy="1219.59" rx="2.59" ry="4.37" fill="#59221d"/><ellipse cx="2108.05" cy="1219.59" rx="2.59" ry="4.37" fill="#59221d"/></g></g></g></g><g id="_2_CHARACTER" data-name="2 CHARACTER"><path id="HAIR-3" data-name="HAIR" d="M1587.77,963.3c0,34.19-22.07,65.39-84.61,68.06-81.06,1.39-102.27-28.67-102.27-63.79,0-31.55,22.41-57.75,51.84-62.87V879.08A36.24,36.24,0,0,1,1489,842.84h9.84A36.24,36.24,0,0,1,1535,879.08v25.1A59.5,59.5,0,0,1,1587.77,963.3Z" fill="#fff"/><g id="LEGS-4" data-name="LEGS"><path d="M1336.64,1606.44h290.19c57.92,0,104.88-48.89,104.88-109.19h0c0-60.3-47-109.18-104.88-109.18H1336.64c-57.93,0-104.88,48.88-104.88,109.18h0C1231.76,1557.55,1278.71,1606.44,1336.64,1606.44Z" fill="#59221d"/><g id="RIGHT_LEG" data-name="RIGHT LEG"><path d="M1734.54,1524.49V2280a50.35,50.35,0,0,1-14.74,35.66c-22-12.53-51.32-27.9-75.67-39.11-87.55-40.27-136.07-35.86-144.88-34.58l-25-662-1.91-50.58a131.13,131.13,0,1,1,262.17-4.94Z" fill="#59221d"/><path d="M1465.23,2308.48a12.77,12.77,0,0,0,11.25,18.8h208.93a43.71,43.71,0,0,0,31.26-13c-22.3-12.81-47.12-26.05-72.54-37.74-97.26-44.73-143.35-34.35-143.35-34.35Z" fill="#fff" stroke="#f3b304" stroke-miterlimit="10" stroke-width="6"/></g><g id="LEFT_LEG" data-name="LEFT LEG"><path d="M1476.33,1571.06l-155.26,674.42s-62-10.39-156.65,34.35c-24.72,11.69-48.86,24.93-70.55,37.74a42,42,0,0,1-11.37-35.19l108.69-764.31a145.14,145.14,0,0,1,143.7-124.71C1428.2,1393.36,1497.26,1480.13,1476.33,1571.06Z" fill="#59221d"/><path d="M1349.51,2295.74a22.3,22.3,0,0,1-19.77,32.62H1125.36a41.92,41.92,0,0,1-30.41-13c21.69-12.81,45.84-26.06,70.56-37.75,94.6-44.73,156.64-34.35,156.64-34.35Z" fill="#fff" stroke="#f3b304" stroke-miterlimit="10" stroke-width="6"/><path d="M1337,1395.36c93.3,0,162.37,86.77,141.44,177.7l-26.84,116.58" fill="none" stroke="#fff" stroke-linecap="round" stroke-linejoin="round" stroke-width="5"/></g></g><g id="CANE"><path d="M1789.07,2330.52v-812a72.18,72.18,0,0,0-72.18-72.19h0a72.19,72.19,0,0,0-72.19,72.19" fill="none" stroke="#f3b304" stroke-miterlimit="10" stroke-width="6"/><path d="M1674.28,2330.52h0a68.65,68.65,0,0,1,68.65-68.65h92.27a68.65,68.65,0,0,1,68.66,68.65h0" fill="none" stroke="#f3b304" stroke-miterlimit="10" stroke-width="6"/><path d="M1915.78,2330.52h-24.91l2.29-6.21a8.47,8.47,0,0,1,7.94-5.53h4.45a8.47,8.47,0,0,1,7.94,5.53Z" fill="#59221d"/><path d="M1801,2330.52h-24.91l2.29-6.21a8.47,8.47,0,0,1,7.94-5.53h4.45a8.47,8.47,0,0,1,7.94,5.53Z" fill="#59221d"/><path d="M1687.22,2330.52h-24.91l2.29-6.21a8.47,8.47,0,0,1,7.94-5.53H1677a8.47,8.47,0,0,1,7.94,5.53Z" fill="#59221d"/></g><g id="BLOUSE"><path d="M1690.7,1028.15a108.53,108.53,0,0,1,80.45,83.14l-114.56,55.49,3.07,223.57H1315.07l7-222.36-114.83-55.62a108.51,108.51,0,0,1,80.44-83.13l164.29-39h84.59Z" fill="#f5bbbb"/><circle cx="1493.67" cy="1081.2" r="8.22" fill="none" stroke="#fff" stroke-linecap="round" stroke-linejoin="round" stroke-width="5"/><circle cx="1493.67" cy="1139.98" r="8.22" fill="none" stroke="#fff" stroke-linecap="round" stroke-linejoin="round" stroke-width="5"/><circle cx="1493.67" cy="1198.76" r="8.22" fill="none" stroke="#fff" stroke-linecap="round" stroke-linejoin="round" stroke-width="5"/><circle cx="1493.67" cy="1257.53" r="8.22" fill="none" stroke="#fff" stroke-linecap="round" stroke-linejoin="round" stroke-width="5"/><polyline points="1412.32 1000.23 1434.28 1067.62 1476.23 1033.45" fill="none" stroke="#fff" stroke-linecap="round" stroke-linejoin="round" stroke-width="5"/><polyline points="1513.14 1033.45 1552.48 1067.62 1573.65 1000.49" fill="none" stroke="#fff" stroke-linecap="round" stroke-linejoin="round" stroke-width="5"/><line x1="1323.94" y1="1147.5" x2="1213.94" y2="1094.8" fill="none" stroke="#fff" stroke-linecap="round" stroke-linejoin="round" stroke-width="5"/><line x1="1655.14" y1="1147.59" x2="1766.15" y2="1093.88" fill="none" stroke="#fff" stroke-linecap="round" stroke-linejoin="round" stroke-width="5"/></g><g id="HANDS"><g id="RIGHT_HAND" data-name="RIGHT HAND"><path d="M1230.48,1444l491.34-.12a92.26,92.26,0,0,0,23.26-3,83.64,83.64,0,0,0,68.54-96.67l-42.47-233-114.56,55.49,1.45,101.78L1344,1315.06a110.43,110.43,0,0,0-29.51,10.06l-95.07,89C1208.2,1421.54,1206.3,1444.05,1230.48,1444Z" fill="#a74602"/><line x1="1692.16" y1="1263.56" x2="1637.08" y2="1271.24" fill="none" stroke="#59221d" stroke-linecap="round" stroke-miterlimit="10" stroke-width="5"/></g><g id="LEFT_HAND" data-name="LEFT HAND"><path d="M1207.24,1112.37,1322.07,1168l-2.82,103,406.29,56.63a56.57,56.57,0,0,1,42,29.21l60.52,144.66h-8.83a37,37,0,0,1-32.64-19.59l-7.85-14.74-90.61,9.84c-17,2.06-33.12-9.48-39.19-25.43l-2.83-7.45H1236.57a91.36,91.36,0,0,1-54.12-17.6c-30.32-22.12-43.33-61-33.58-97.27Z" fill="#a74602"/><path d="M1636.57,1413.89l12.37,37.71c6.07,16,22.24,27.5,39.19,25.43l90.61-9.84,7.85,14.74a37,37,0,0,0,32.64,19.6h8.83l-60.52-144.66a56.58,56.58,0,0,0-42-29.22L1254.22,1262" fill="none" stroke="#59221d" stroke-linecap="round" stroke-miterlimit="10" stroke-width="5"/><line x1="1779.01" y1="1467.77" x2="1750.61" y2="1407.88" fill="none" stroke="#59221d" stroke-linecap="round" stroke-miterlimit="10" stroke-width="5"/><line x1="1741.43" y1="1468.08" x2="1714.11" y2="1411.44" fill="none" stroke="#59221d" stroke-linecap="round" stroke-miterlimit="10" stroke-width="5"/><line x1="1705.82" y1="1472.53" x2="1678.5" y2="1415.89" fill="none" stroke="#59221d" stroke-linecap="round" stroke-miterlimit="10" stroke-width="5"/></g></g><g id="NECK-3" data-name="NECK"><path d="M1536.55,990.26l-10.25-49.34h-63.42L1452,990.26s-7.9,42,42.29,42S1536.55,990.26,1536.55,990.26Z" fill="#a74602"/><path d="M1526.75,943.1a43.18,43.18,0,0,1-37.32,42L1452,990.26l10.91-49.35h63.42Z" fill="#59221d"/></g><g id="HEAD-6" data-name="HEAD"><path d="M1551.54,922.54v2.76A16.65,16.65,0,0,1,1534.89,942h-7.55c-2.84,14.61-16.11,25.66-32,25.66h-1.91c-15.94,0-29.21-11.05-32.05-25.66h-7.11a16.65,16.65,0,0,1-16.65-16.65v-2.76a16.66,16.66,0,0,1,16.65-16.65,10.31,10.31,0,0,1,6.55,2.34v-7.87c0-7.46,7.34-12.88,14.78-10.88a25.64,25.64,0,0,0,6.68.87c11.7,0,21.31-7.7,22.42-17.57h.11c12.78,0,23.14,10,23.14,22.36v13.17a11.24,11.24,0,0,1,7-2.42,16.64,16.64,0,0,1,16.65,16.65Z" fill="#a74602"/><g id="EARS"><path d="M1459.27,927a10.87,10.87,0,0,0-10.87-10.86" fill="none" stroke="#59221d" stroke-linecap="round" stroke-miterlimit="10" stroke-width="5"/><path d="M1528.37,927a10.87,10.87,0,0,1,10.87-10.86" fill="none" stroke="#59221d" stroke-linecap="round" stroke-miterlimit="10" stroke-width="5"/></g><g id="FACE-3" data-name="FACE"><path d="M1505.24,898.74s9.33-3.26,15.8,2.64" fill="none" stroke="#fff" stroke-linecap="round" stroke-linejoin="round" stroke-width="4"/><ellipse cx="1510.07" cy="912.1" rx="3.08" ry="5.19" fill="#59221d"/><ellipse cx="1477.26" cy="912.1" rx="3.08" ry="5.19" fill="#59221d"/><path d="M1499.14,925.89a13.48,13.48,0,0,1-10.11.38s2.06-20.38-4-26.53" fill="none" stroke="#59221d" stroke-linecap="round" stroke-miterlimit="10" stroke-width="5"/><path d="M1468.34,901.39c6.46-5.91,15.79-2.67,15.79-2.67" fill="none" stroke="#fff" stroke-linecap="round" stroke-linejoin="round" stroke-width="4"/><path d="M1486.12,939.83a16.35,16.35,0,0,0,18.19-2.13" fill="none" stroke="#59221d" stroke-linecap="round" stroke-miterlimit="10" stroke-width="5"/><line x1="1502.97" y1="934.73" x2="1506.99" y2="941.91" fill="none" stroke="#59221d" stroke-linecap="round" stroke-miterlimit="10" stroke-width="5"/></g></g></g><g id="_1_CHARACTER" data-name="1 CHARACTER"><g id="SHOES-3" data-name="SHOES"><g id="RIGHT-6" data-name="RIGHT"><path d="M804,2330.52h-228a28.46,28.46,0,0,1-27.71-34.94l14.56-62.11H712.08a48.79,48.79,0,0,1,41.2,22.66l1.25,2a31.13,31.13,0,0,0,26.28,14.45h20.45q2.91,4.16,6,8.23l13,17.3A20.26,20.26,0,0,1,804,2330.52Z" fill="none" stroke="#592d29" stroke-linecap="round" stroke-linejoin="round" stroke-width="5"/><path d="M804,2330.52h-228a28.46,28.46,0,0,1-27.71-34.94l2.51-10.74a28.49,28.49,0,0,0,28.45,27.28h228a19.92,19.92,0,0,0,16.1-8A20.29,20.29,0,0,1,804,2330.52Z" fill="#a74602"/><path d="M804,2330.52h-228a28.46,28.46,0,0,1-27.71-34.94l2.51-10.74a28.49,28.49,0,0,0,28.45,27.28h228a19.92,19.92,0,0,0,16.1-8A20.29,20.29,0,0,1,804,2330.52Z" fill="none" stroke="#592d29" stroke-linecap="round" stroke-linejoin="round" stroke-width="5"/><path d="M714.24,2233.47c16.71,0,30.09,8.55,39,22.66l1.25,2a31.13,31.13,0,0,0,26.28,14.45h20.45c-15.7-22.49-49.18-70.41-52.64-116.88l-34,44.25Z" fill="#7ebad2"/><path d="M714.24,2233.47c16.71,0,30.09,8.55,39,22.66l1.25,2a31.13,31.13,0,0,0,26.28,14.45h20.45c-15.7-22.49-49.18-70.41-52.64-116.88l-34,44.25Z" fill="none" stroke="#59221d" stroke-linecap="round" stroke-linejoin="round" stroke-width="5"/><rect x="562.9" y="2199.93" width="151.69" height="33.54" stroke-width="5" stroke="#59221d" stroke-linecap="round" stroke-linejoin="round" fill="#fff"/><line x1="587.54" y1="2199.9" x2="587.54" y2="2233.47" fill="none" stroke="#59221d" stroke-linecap="round" stroke-linejoin="round" stroke-width="5"/><line x1="612.72" y1="2199.9" x2="612.72" y2="2233.47" fill="none" stroke="#59221d" stroke-linecap="round" stroke-linejoin="round" stroke-width="5"/><line x1="637.89" y1="2199.9" x2="637.89" y2="2233.47" fill="none" stroke="#59221d" stroke-linecap="round" stroke-linejoin="round" stroke-width="5"/><line x1="663.07" y1="2199.9" x2="663.07" y2="2233.47" fill="none" stroke="#59221d" stroke-linecap="round" stroke-linejoin="round" stroke-width="5"/><line x1="688.25" y1="2199.9" x2="688.25" y2="2233.47" fill="none" stroke="#59221d" stroke-linecap="round" stroke-linejoin="round" stroke-width="5"/></g><g id="LEFT-6" data-name="LEFT"><path d="M247.9,2330.52H172.78c-9,0-21.54,0-31.05-8.4l-130-101.88c-16.09-12.59-8.23-25.77,1.07-35.7l49.25-53.17s82.8,50.7,147.06,47.8c18.25-.82,35-5.05,46.53-26.61-15.45,29.27-9.62,106.38,11.68,145A22.24,22.24,0,0,1,247.9,2330.52Z" fill="#fff" stroke="#59221d" stroke-linecap="round" stroke-linejoin="round" stroke-width="5"/><path d="M247.9,2330.52H172.78c-9,0-21.53,0-31.05-8.4l-130-101.88c-15.12-11.83-9.1-24.18-.6-33.86.11,5.08,2.69,10.31,9.26,15.45l130,101.88c9.52,8.41,22.09,8.41,31.06,8.41h75.11a21.92,21.92,0,0,0,13.58-4.61A22.25,22.25,0,0,1,247.9,2330.52Z" fill="#a74602"/><path d="M247.9,2330.52H172.78c-9,0-21.53,0-31.05-8.4l-130-101.88c-15.12-11.83-9.1-24.18-.6-33.86.11,5.08,2.69,10.31,9.26,15.45l130,101.88c9.52,8.41,22.09,8.41,31.06,8.41h75.11a21.92,21.92,0,0,0,13.58-4.61A22.25,22.25,0,0,1,247.9,2330.52Z" fill="none" stroke="#59221d" stroke-linecap="round" stroke-linejoin="round" stroke-width="5"/><rect x="59.49" y="2138.24" width="151.69" height="33.54" transform="translate(1115.56 231.08) rotate(30.59)" stroke-width="5" stroke="#59221d" stroke-linecap="round" stroke-linejoin="round" fill="#fff"/><line x1="99.81" y1="2114.49" x2="82.73" y2="2143.39" fill="none" stroke="#59221d" stroke-linecap="round" stroke-linejoin="round" stroke-width="5"/><line x1="121.48" y1="2127.31" x2="104.4" y2="2156.2" fill="none" stroke="#59221d" stroke-linecap="round" stroke-linejoin="round" stroke-width="5"/><line x1="143.15" y1="2140.12" x2="126.07" y2="2169.01" fill="none" stroke="#59221d" stroke-linecap="round" stroke-linejoin="round" stroke-width="5"/><line x1="164.83" y1="2152.93" x2="147.74" y2="2181.83" fill="none" stroke="#59221d" stroke-linecap="round" stroke-linejoin="round" stroke-width="5"/><line x1="186.5" y1="2165.74" x2="169.41" y2="2194.64" fill="none" stroke="#59221d" stroke-linecap="round" stroke-linejoin="round" stroke-width="5"/><path d="M252,2251.88H235.7a15.64,15.64,0,0,1-15.39-12.83l-.73-4a27.84,27.84,0,0,0-13.7-19.25l-13.8-7.8,17.08-28.87c18.24-.83,35-5.05,46.53-26.61C245.14,2172.54,244.5,2214.79,252,2251.88Z" fill="#7ebad2"/><path d="M252,2251.88H235.7a15.64,15.64,0,0,1-15.39-12.83l-.73-4a27.84,27.84,0,0,0-13.7-19.25l-13.8-7.8,17.08-28.87c18.24-.83,35-5.05,46.53-26.61C245.14,2172.54,244.5,2214.79,252,2251.88Z" fill="none" stroke="#59221d" stroke-linecap="round" stroke-linejoin="round" stroke-width="5"/></g></g><g id="RIGHT_ARM" data-name="RIGHT ARM"><path d="M1081.65,207.79l29.36-69.2a54.84,54.84,0,0,1,50.49-33.43h95.63a31.88,31.88,0,0,1,31.16,25.17l3.78,17.67h-23a16.18,16.18,0,0,0-15,10.16l-18.16,45.26a72.13,72.13,0,0,1-66.94,45.27h-60.21A29.41,29.41,0,0,1,1081.65,207.79Z" fill="#fff" stroke="#59221d" stroke-linecap="round" stroke-linejoin="round" stroke-width="5"/><path d="M1147.91,138.59a54.86,54.86,0,0,1,50.5-33.43" fill="none" stroke="#59221d" stroke-linecap="round" stroke-linejoin="round" stroke-width="5"/><path d="M1184.82,138.59a54.85,54.85,0,0,1,50.5-33.43" fill="none" stroke="#59221d" stroke-linecap="round" stroke-linejoin="round" stroke-width="5"/><path d="M1221.73,138.59a54.86,54.86,0,0,1,41.93-32.76" fill="none" stroke="#59221d" stroke-linecap="round" stroke-linejoin="round" stroke-width="5"/></g><g id="HEAD-7" data-name="HEAD"><polygon id="NECK-4" data-name="NECK" points="482.09 464.03 500.44 417.5 581.53 417.28 581.53 464.03 482.09 464.03" fill="#fff" stroke="#59221d" stroke-linecap="round" stroke-linejoin="round" stroke-width="5"/><path id="FACE-4" data-name="FACE" d="M527.2,425.54c24.27,22,67.35,3.85,67.35,3.85-.65-8.24-1.53-10.68-2.44-22.05-.31-3.93,10.93-5,10.62-8.89-1.57-19.72-14.56-49-14.71-50.78C568.84,375.36,524.78,369,524.78,369Z" fill="#fff" stroke="#59221d" stroke-linecap="round" stroke-linejoin="round" stroke-width="5"/><g id="EYE"><path d="M565.43,377.91s4.41-7.24,16.77-8.52" fill="none" stroke="#59221d" stroke-linecap="round" stroke-linejoin="round" stroke-width="5"/><ellipse cx="577.13" cy="386.07" rx="3.14" ry="5.71" fill="#59221d"/></g><path id="HAIR-4" data-name="HAIR" d="M597.44,431.47a10.46,10.46,0,0,1-9.54,11.62c-16.41,1.31-53.77,2-62.47-16.27-.5-1-.94-1.11-1.34-2.21-15,.05-27.68,3.76-34.8-18.8-4.48-14.2-6.78-38.18-3.13-45.78,4.21-8.78,103.57-56.14,109.53-52.73s8,26.45-5.71,43.26c-12.85,15.71-35.66,22.2-58.25,21.51,3.78,12,12.16,31.47,29.27,33.71,25,3.25,33-4.22,33-4.22Z" fill="#59221d"/><g id="EAR-2" data-name="EAR"><path d="M530.36,400.29l-.1,25.57H513.89a18.75,18.75,0,1,1,0-37.5h4.6A11.88,11.88,0,0,1,530.36,400.29Z" fill="#fff" stroke="#59221d" stroke-linecap="round" stroke-linejoin="round" stroke-width="5"/><path d="M510.77,398.68A10.36,10.36,0,0,1,521.13,409" fill="none" stroke="#59221d" stroke-linecap="round" stroke-linejoin="round" stroke-width="5"/></g></g><g id="SHIRT-2" data-name="SHIRT"><path d="M284.43,1084.51l-2.11,152.34a64.58,64.58,0,0,1-67.27,61.93l-67.44-2.65a64.57,64.57,0,0,1-60.9-75.35l99.86-586.39a167.37,167.37,0,0,1,165.13-140H910.27a65.47,65.47,0,0,0,61.85-44l63.22-182.24a70.35,70.35,0,0,1,66.46-47.3h83.36a53,53,0,0,1,50.92,67.8l-91.52,315.3a148,148,0,0,1-142.13,106.75H813.83a64.11,64.11,0,0,0-64.12,64.11v311.53Z" fill="#ffc200"/><path d="M1143.4,607.71a148,148,0,0,1-141,102.93H988.05a93.36,93.36,0,0,1-3.76-26.25c0-53,44.48-96,99.33-96A101.15,101.15,0,0,1,1143.4,607.71Z" fill="#a74602"/><path d="M245.05,917.73c0,53.51-39.59,96.89-88.45,96.89a81.2,81.2,0,0,1-33.55-7.23l31.77-186.53,1.78,0C205.46,820.84,245.05,864.22,245.05,917.73Z" fill="#a74602"/><ellipse cx="177.88" cy="1268.38" rx="37.36" ry="76.53" transform="translate(-1098.01 1380.31) rotate(-87.03)" fill="#59221d"/><path d="M456.82,494.35,480.2,461H584.56s32,33.4,28.41,33.4Z" fill="#a74602"/></g><g id="LEFT_ARM" data-name="LEFT ARM"><path d="M238.2,1326.11l-8.42,43.51a20.93,20.93,0,0,1-20.55,17H193.47L186,1411.35a33.13,33.13,0,0,1-31.71,23.53H53A22.84,22.84,0,0,1,30.19,1412h0a17.31,17.31,0,0,1,17.3-17.3H57.4l36.27-99a56.26,56.26,0,0,1,53.5-36.9l36.5.37A56.24,56.24,0,0,1,238.2,1326.11Z" fill="#fff" stroke="#59221d" stroke-linecap="round" stroke-linejoin="round" stroke-width="5"/><path d="M87.89,1434.88A22.84,22.84,0,0,1,65.05,1412h0a17.3,17.3,0,0,1,17.3-17.3h9.91l14.2-38.78" fill="none" stroke="#59221d" stroke-linecap="round" stroke-linejoin="round" stroke-width="5"/><path d="M122.74,1434.88A22.84,22.84,0,0,1,99.91,1412h0a17.3,17.3,0,0,1,17.3-17.3h9.91l14.2-38.78" fill="none" stroke="#59221d" stroke-linecap="round" stroke-linejoin="round" stroke-width="5"/><path d="M154.53,1434.88A22.84,22.84,0,0,1,131.69,1412h0a17.3,17.3,0,0,1,17.3-17.3h9.91l10.44-28.49" fill="none" stroke="#59221d" stroke-linecap="round" stroke-linejoin="round" stroke-width="5"/><path d="M210.68,1386.58H165.26v-4.22c0-9,6-17.91,14.59-20.42l10.58-3.26s-21.09-9.41-17-47.5" fill="none" stroke="#59221d" stroke-linecap="round" stroke-linejoin="round" stroke-width="5"/></g><g id="PANTS"><path d="M748.63,1089.76v940.58l-.37-.65v126.42a43.8,43.8,0,0,1-43.79,43.79H554.92a41,41,0,0,1-41-41V1532.12s-23.51,279.6-258.22,620.44c-9.77,16.07-22.65,23.75-37,25.76a59.13,59.13,0,0,1-10.09.52L78.59,2102h0l-5.51-4.91a50.25,50.25,0,0,1-13-63.26c73.24-135.49,249.23-533,224.25-945.82Z" fill="#fff" stroke="#59221d" stroke-linecap="round" stroke-linejoin="round" stroke-width="5"/><polyline points="513.91 1542.13 513.91 1275.6 470.47 1274.87" fill="none" stroke="#59221d" stroke-linecap="round" stroke-linejoin="round" stroke-width="5"/><path d="M649.13,1446h99.39a0,0,0,0,1,0,0v32.81a0,0,0,0,1,0,0H639.75a0,0,0,0,1,0,0V1455.4A9.38,9.38,0,0,1,649.13,1446Z" fill="#fff" stroke="#59221d" stroke-linecap="round" stroke-linejoin="round" stroke-width="5"/><path d="M649.21,1478.83h99.42a0,0,0,0,1,0,0v99.42a0,0,0,0,1,0,0H664.43A15.22,15.22,0,0,1,649.21,1563v-84.19A0,0,0,0,1,649.21,1478.83Z" fill="#fff" stroke="#59221d" stroke-linecap="round" stroke-linejoin="round" stroke-width="5"/></g><g id="BACKPACK"><path d="M757.67,494.35h-75a53.64,53.64,0,0,0-53.35,48.07L618,1065.9a97,97,0,0,1-96.45,86.91H353.51A84.57,84.57,0,0,1,269.83,1056l74.69-512.45a57.56,57.56,0,0,1,57-49.24H454a53.62,53.62,0,0,0-53.34,48l-1.33,12.73a41.94,41.94,0,0,0,41.72,46.32h80.7a42,42,0,0,0,41-33.21l6-28.31a57.55,57.55,0,0,1,56.29-45.57Z" fill="#7ebad2"/><path d="M267.6,1056a84.58,84.58,0,0,0,83.69,96.77H522.6A97,97,0,0,0,619,1065.9l11.3-523.48a53.63,53.63,0,0,1,53.34-48.07" fill="none" stroke="#59221d" stroke-linecap="round" stroke-linejoin="round" stroke-width="5"/><path d="M268.29,1056a84.61,84.61,0,0,0,84.08,75.19h115a97,97,0,0,0,96.44-86.9l54.61-501.83c2.85-27.32,26.58-49.24,63.34-48.07" fill="none" stroke="#59221d" stroke-linecap="round" stroke-linejoin="round" stroke-width="5"/><path d="M455.07,494.35c-27.46,0-53.48,20.73-56.34,48l-1.34,12.73a42,42,0,0,0,41.72,46.32" fill="none" stroke="#59221d" stroke-linecap="round" stroke-linejoin="round" stroke-width="5"/><path d="M364.31,916.72a13.16,13.16,0,0,0-13.07,11.67l-9.47,83.78a18.09,18.09,0,0,0,18,20.21H479.46a25.3,25.3,0,0,0,25.19-22.94L512.46,926a8.51,8.51,0,0,0-8.47-9.3Z" fill="#fff"/><path d="M488.83,929.54H330.39l3-16.21a9.07,9.07,0,0,1,8.92-7.44H491Z" fill="none" stroke="#59221d" stroke-linecap="round" stroke-linejoin="round" stroke-width="5"/><path d="M339.39,929.54l-8.45,71.8a18.1,18.1,0,0,0,18,20.21H468.63a25.29,25.29,0,0,0,25.19-22.94l7.81-83.42a8.51,8.51,0,0,0-8.47-9.3" fill="none" stroke="#59221d" stroke-linecap="round" stroke-linejoin="round" stroke-width="5"/><line x1="384.39" y1="648.32" x2="546.37" y2="648.32" fill="none" stroke="#59221d" stroke-linecap="round" stroke-linejoin="round" stroke-width="5"/></g></g></g></g></svg>